<svg width="20" height="12" viewBox="0 0 20 12" fill="none" xmlns="http://www.w3.org/2000/svg">
<path d="M9.21976 12C8.73697 11.9274 8.26717 11.7901 7.82408 11.592C5.69833 10.6152 3.7372 9.33692 2.00632 7.8L1.61216 7.4C1.50781 7.29445 1.41021 7.18291 1.31992 7.066C1.08483 6.75969 0.958643 6.38869 0.960076 6.008C0.95542 5.5976 1.09259 5.19734 1.35008 4.87L1.75568 4.45L1.84616 4.36C3.64802 2.70822 5.71724 1.34915 7.9728 0.336L8.22656 0.242C8.54619 0.122914 8.87971 0.0416504 9.21976 0C9.54888 0.00030426 9.87323 0.0757032 10.1662 0.22C10.5416 0.422985 10.8369 0.73931 11.0065 1.12C11.1176 1.46984 11.2082 1.8254 11.2779 2.185C11.4548 3.32733 11.5392 4.48112 11.5306 5.636V5.99C11.5428 7.22281 11.4678 8.45499 11.306 9.678L11.1885 10.222C11.1365 10.4908 11.0553 10.7536 10.9462 11.006C10.7898 11.3025 10.5517 11.552 10.2579 11.7273C9.96406 11.9026 9.62583 11.9969 9.28008 12H9.21976ZM14.2721 7.191C13.9499 7.18202 13.6441 7.05266 13.4195 6.83037C13.1949 6.60809 13.0693 6.3104 13.0693 6.0005C13.0693 5.6906 13.1949 5.39291 13.4195 5.17063C13.6441 4.94834 13.9499 4.81898 14.2721 4.81L18.1201 4.483C18.5388 4.483 18.9403 4.64293 19.2364 4.92761C19.5325 5.21229 19.6988 5.5984 19.6988 6.001C19.6988 6.4036 19.5325 6.78971 19.2364 7.07439C18.9403 7.35907 18.5388 7.519 18.1201 7.519L14.2721 7.191Z" fill="#200E32"/>
</svg>
