<svg width="21" height="22" viewBox="0 0 21 22" fill="none" xmlns="http://www.w3.org/2000/svg">
<path d="M7.657 19.7713V16.7003C7.65885 16.3236 7.80963 15.963 8.07642 15.6972C8.34322 15.4313 8.70436 15.2818 9.081 15.2813H11.967C12.1543 15.2804 12.3399 15.3163 12.5132 15.3871C12.6866 15.458 12.8443 15.5622 12.9774 15.694C13.1105 15.8258 13.2163 15.9824 13.2888 16.1551C13.3613 16.3278 13.3991 16.513 13.4 16.7003V16.7003V19.7763C13.4002 20.0967 13.5259 20.4043 13.7503 20.6331C13.9746 20.8619 14.2796 20.9937 14.6 21.0003H16.524C16.978 21.0029 17.4281 20.9161 17.8485 20.7447C18.269 20.5733 18.6515 20.3208 18.9743 20.0015C19.2971 19.6822 19.5539 19.3025 19.7299 18.8839C19.9058 18.4654 19.9976 18.0163 20 17.5623V17.5623V8.83828C19.9938 8.46945 19.904 8.10684 19.7373 7.77774C19.5707 7.44864 19.3316 7.16162 19.038 6.93828L12.458 1.68528C11.8965 1.24145 11.2017 1 10.486 1C9.77028 1 9.07548 1.24145 8.514 1.68528L1.962 6.94328C1.66683 7.16605 1.42665 7.4535 1.25989 7.78356C1.09312 8.11362 1.00422 8.47751 1 8.84728V17.5613C1.00223 18.0151 1.09383 18.4641 1.26957 18.8825C1.44531 19.301 1.70175 19.6807 2.02425 20.0001C2.34675 20.3194 2.72899 20.5721 3.14915 20.7437C3.5693 20.9153 4.01915 21.0025 4.473 21.0003H6.4C6.56218 21.0011 6.72293 20.9699 6.87307 20.9086C7.02321 20.8472 7.1598 20.7569 7.27504 20.6428C7.39028 20.5287 7.48191 20.393 7.5447 20.2434C7.60749 20.0939 7.64021 19.9335 7.641 19.7713V19.7713" stroke="#97AABD" stroke-width="1.5" stroke-miterlimit="10" stroke-linecap="round" stroke-linejoin="round"/>
</svg>
