<svg width="24" height="15" viewBox="0 0 24 15" fill="none" xmlns="http://www.w3.org/2000/svg">
<path d="M15.1098 12.6121H8.89062V1.50948H15.1098V12.6121Z" fill="#FF5F00"/>
<path d="M9.28514 7.06103C9.28514 4.80881 10.3467 2.80259 11.9998 1.50971C10.7909 0.56429 9.26526 0 7.6072 0C3.6819 0 0.5 3.16128 0.5 7.06103C0.5 10.9608 3.6819 14.1221 7.6072 14.1221C9.26526 14.1221 10.7909 13.5578 11.9998 12.6123C10.3467 11.3195 9.28514 9.31325 9.28514 7.06103Z" fill="#EB001B"/>
<path d="M23.5 7.06103C23.5 10.9608 20.3181 14.1221 16.3928 14.1221C14.7348 14.1221 13.2091 13.5578 11.9998 12.6123C13.6533 11.3195 14.7149 9.31325 14.7149 7.06103C14.7149 4.80881 13.6533 2.80259 11.9998 1.50971C13.2091 0.56429 14.7348 0 16.3928 0C20.3181 0 23.5 3.16128 23.5 7.06103Z" fill="#F79E1B"/>
</svg>
