<svg width="300" height="300" viewBox="0 0 300 300" fill="none" xmlns="http://www.w3.org/2000/svg">
<path d="M74.574 184.836H18.468V235.35H74.574V184.836Z" fill="#F5F5F5"/>
<path d="M62.742 206.358H30.306C27.8108 206.358 25.788 208.381 25.788 210.876V217.29C25.788 219.785 27.8108 221.808 30.306 221.808H62.742C65.2372 221.808 67.26 219.785 67.26 217.29V210.876C67.26 208.381 65.2372 206.358 62.742 206.358Z" fill="#E0E0E0"/>
<path d="M74.262 194.4C74.262 194.484 61.896 194.55 46.662 194.55C31.428 194.55 19.062 194.484 19.062 194.4C19.062 194.316 31.428 194.25 46.662 194.25C61.896 194.25 74.262 194.34 74.262 194.4Z" fill="#E0E0E0"/>
<path d="M24.732 190.662C24.732 190.937 24.6504 191.206 24.4974 191.435C24.3445 191.664 24.1271 191.843 23.8727 191.948C23.6183 192.053 23.3385 192.081 23.0684 192.027C22.7984 191.974 22.5504 191.841 22.3557 191.646C22.161 191.452 22.0285 191.204 21.9747 190.934C21.921 190.664 21.9486 190.384 22.054 190.129C22.1593 189.875 22.3377 189.658 22.5666 189.505C22.7956 189.352 23.0647 189.27 23.34 189.27C23.7092 189.27 24.0632 189.417 24.3243 189.678C24.5853 189.939 24.732 190.293 24.732 190.662Z" fill="#E0E0E0"/>
<path d="M28.842 190.662C28.842 190.938 28.7602 191.207 28.607 191.436C28.4538 191.665 28.236 191.843 27.9813 191.949C27.7266 192.054 27.4464 192.081 27.1763 192.027C26.9061 191.973 26.6581 191.839 26.4636 191.644C26.2692 191.449 26.1371 191.2 26.0841 190.93C26.031 190.659 26.0595 190.379 26.1657 190.125C26.272 189.871 26.4514 189.654 26.6811 189.502C26.9108 189.349 27.1805 189.269 27.456 189.27C27.6386 189.27 27.8193 189.306 27.9878 189.376C28.1564 189.446 28.3094 189.549 28.4382 189.678C28.567 189.807 28.669 189.961 28.7383 190.13C28.8076 190.299 28.8428 190.479 28.842 190.662V190.662Z" fill="#E0E0E0"/>
<path d="M32.958 190.662C32.958 190.937 32.8764 191.206 32.7234 191.435C32.5705 191.664 32.3531 191.843 32.0987 191.948C31.8444 192.053 31.5645 192.081 31.2944 192.027C31.0244 191.974 30.7764 191.841 30.5817 191.646C30.387 191.452 30.2545 191.204 30.2008 190.934C30.147 190.664 30.1746 190.384 30.28 190.129C30.3853 189.875 30.5637 189.658 30.7927 189.505C31.0216 189.352 31.2907 189.27 31.566 189.27C31.9352 189.27 32.2893 189.417 32.5503 189.678C32.8114 189.939 32.958 190.293 32.958 190.662Z" fill="#E0E0E0"/>
<path d="M36.6 214.506V215.184C36.6 215.502 36.4736 215.808 36.2485 216.033C36.0235 216.258 35.7183 216.384 35.4 216.384C35.0818 216.384 34.7765 216.258 34.5515 216.033C34.3264 215.808 34.2 215.502 34.2 215.184V212.514C34.2 212.196 34.3264 211.891 34.5515 211.665C34.7765 211.44 35.0818 211.314 35.4 211.314C35.7183 211.314 36.0235 211.44 36.2485 211.665C36.4736 211.891 36.6 212.196 36.6 212.514V213H35.814V212.448C35.814 212.082 35.652 211.944 35.4 211.944C35.148 211.944 34.98 212.082 34.98 212.448V215.226C34.98 215.592 35.142 215.724 35.4 215.724C35.658 215.724 35.814 215.592 35.814 215.226V214.494L36.6 214.506Z" fill="white"/>
<path d="M37.074 211.284H37.878V215.682H39.204V216.42H37.074V211.284Z" fill="white"/>
<path d="M39.558 211.284H40.368V216.42H39.558V211.284Z" fill="white"/>
<path d="M43.296 214.506V215.184C43.3218 215.352 43.3093 215.523 43.2596 215.686C43.2098 215.848 43.1241 215.997 43.0087 216.122C42.8934 216.246 42.7514 216.343 42.5934 216.405C42.4353 216.467 42.2653 216.493 42.096 216.48C41.304 216.48 40.896 216.006 40.896 215.184V212.514C40.896 211.692 41.304 211.224 42.096 211.224C42.2647 211.211 42.4341 211.237 42.5917 211.299C42.7492 211.36 42.8908 211.457 43.0061 211.581C43.1213 211.704 43.2072 211.853 43.2574 212.014C43.3076 212.176 43.3208 212.347 43.296 212.514V213H42.528V212.448C42.528 212.082 42.372 211.944 42.114 211.944C41.856 211.944 41.694 212.082 41.694 212.448V215.226C41.694 215.592 41.856 215.724 42.114 215.724C42.372 215.724 42.528 215.592 42.528 215.226V214.494L43.296 214.506Z" fill="white"/>
<path d="M44.844 214.374L44.592 214.842V216.42H43.8V211.284H44.604V213.522L45.66 211.284H46.47L45.336 213.6L46.458 216.45H45.6301L44.844 214.374Z" fill="white"/>
<path d="M48.768 216.42H47.9641V211.284H48.768V213.486H49.686V211.284H50.508V216.42H49.686V214.2H48.768V216.42Z" fill="white"/>
<path d="M51.9 213.444H53.01V214.2H51.9V215.7H53.298V216.438H51.096V211.302H53.298V212.034H51.9V213.444Z" fill="white"/>
<path d="M55.482 216.42C55.4174 216.217 55.3929 216.003 55.41 215.79V214.98C55.41 214.506 55.248 214.326 54.882 214.326H54.6V216.42H53.796V211.284H54.996C55.83 211.284 56.196 211.668 56.196 212.484V212.892C56.224 213.099 56.1885 213.31 56.0942 213.496C56 213.682 55.8513 213.836 55.668 213.936C56.076 214.104 56.208 214.488 56.208 215.028V215.82C56.197 216.024 56.2255 216.227 56.292 216.42H55.482ZM54.6 212.016V213.6H54.918C55.218 213.6 55.404 213.468 55.404 213.054V212.55C55.404 212.184 55.278 212.022 54.99 212.022L54.6 212.016Z" fill="white"/>
<path d="M57.552 213.444H58.662V214.2H57.552V215.7H58.9501V216.438H56.748V211.302H58.9501V212.034H57.552V213.444Z" fill="white"/>
<path d="M90.582 38.466H32.208C28.0128 38.466 24.612 41.8668 24.612 46.062V58.278C24.612 62.4732 28.0128 65.874 32.208 65.874H90.582C94.7772 65.874 98.178 62.4732 98.178 58.278V46.062C98.178 41.8668 94.7772 38.466 90.582 38.466Z" fill="#E0E0E0"/>
<path d="M43.758 52.92V54.12C43.758 55.578 43.026 56.412 41.622 56.412C40.218 56.412 39.486 55.578 39.486 54.12V49.38C39.486 47.922 40.212 47.088 41.622 47.088C43.032 47.088 43.758 47.922 43.758 49.38V50.262H42.402V49.302C42.402 48.648 42.114 48.402 41.658 48.402C41.202 48.402 40.92 48.648 40.92 49.302V54.222C40.92 54.87 41.202 55.104 41.658 55.104C42.114 55.104 42.402 54.87 42.402 54.222V52.92H43.758Z" fill="white"/>
<path d="M44.628 47.202H46.062V55.002H48.414V56.304H44.628V47.202Z" fill="white"/>
<path d="M49.044 47.202H50.472V56.316H49.044V47.202Z" fill="white"/>
<path d="M55.668 52.92V54.12C55.668 55.578 54.942 56.412 53.532 56.412C52.122 56.412 51.396 55.578 51.396 54.12V49.38C51.396 47.922 52.128 47.088 53.532 47.088C54.936 47.088 55.668 47.922 55.668 49.38V50.262H54.312V49.302C54.312 48.648 54.03 48.402 53.574 48.402C53.118 48.402 52.83 48.648 52.83 49.302V54.222C52.83 54.87 53.118 55.104 53.574 55.104C54.03 55.104 54.312 54.87 54.312 54.222V52.92H55.668Z" fill="white"/>
<path d="M58.416 52.686L57.972 53.52V56.316H56.538V47.202H57.972V51.174L59.85 47.202H61.278L59.286 51.264L61.278 56.316H59.808L58.416 52.686Z" fill="white"/>
<path d="M65.4 56.316H63.966V47.202H65.4V51.108H67.026V47.202H68.484V56.316H67.026V52.41H65.4V56.316Z" fill="white"/>
<path d="M70.938 51.042H72.906V52.344H70.938V55.014H73.416V56.316H69.51V47.202H73.416V48.504H70.938V51.042Z" fill="white"/>
<path d="M77.292 56.316C77.1725 55.9569 77.1275 55.5771 77.16 55.2V53.766C77.16 52.92 76.878 52.608 76.224 52.608H75.732V56.316H74.298V47.202H76.458C77.946 47.202 78.582 47.892 78.582 49.302V50.016C78.582 50.952 78.282 51.564 77.646 51.864C78.36 52.164 78.594 52.854 78.594 53.802V55.2C78.5676 55.5749 78.6207 55.9511 78.75 56.304L77.292 56.316ZM75.732 48.516V51.318H76.29C76.824 51.318 77.148 51.084 77.148 50.352V49.44C77.148 48.792 76.926 48.504 76.422 48.504L75.732 48.516Z" fill="white"/>
<path d="M80.964 51.042H82.932V52.344H80.964V55.014H83.436V56.316H79.53V47.202H83.436V48.504H80.964V51.042Z" fill="white"/>
<path d="M205.746 38.352V95.964V107.526L216.888 95.964H269.73V38.352H205.746Z" fill="#F5F5F5"/>
<path d="M269.4 49.29C269.4 49.386 255.294 49.464 237.9 49.464C220.506 49.464 206.4 49.386 206.4 49.29C206.4 49.194 220.5 49.116 237.9 49.116C255.3 49.116 269.4 49.2 269.4 49.29Z" fill="#E0E0E0"/>
<path d="M212.886 45C212.887 45.3147 212.795 45.6227 212.621 45.885C212.447 46.1472 212.199 46.352 211.909 46.4732C211.618 46.5945 211.298 46.6268 210.99 46.5662C210.681 46.5055 210.397 46.3545 210.174 46.1324C209.951 45.9103 209.799 45.627 209.737 45.3184C209.675 45.0098 209.706 44.6898 209.827 44.3989C209.947 44.108 210.15 43.8594 210.412 43.6844C210.674 43.5094 210.981 43.416 211.296 43.416C211.717 43.416 212.12 43.5827 212.418 43.8796C212.716 44.1765 212.884 44.5793 212.886 45V45Z" fill="#E0E0E0"/>
<path d="M217.578 45C217.578 45.315 217.484 45.6229 217.309 45.8846C217.134 46.1463 216.885 46.3501 216.594 46.4701C216.302 46.5901 215.982 46.6208 215.673 46.5585C215.365 46.4962 215.081 46.3436 214.859 46.12C214.638 45.8964 214.487 45.612 214.427 45.3028C214.367 44.9936 214.4 44.6735 214.523 44.3832C214.645 44.0929 214.85 43.8454 215.113 43.6721C215.376 43.4989 215.685 43.4076 216 43.41C216.42 43.4132 216.821 43.5821 217.117 43.8799C217.412 44.1778 217.578 44.5804 217.578 45V45Z" fill="#E0E0E0"/>
<path d="M222.264 45C222.264 45.3133 222.171 45.6195 221.997 45.88C221.823 46.1405 221.576 46.3435 221.286 46.4634C220.997 46.5833 220.678 46.6147 220.371 46.5536C220.064 46.4924 219.782 46.3416 219.56 46.1201C219.338 45.8985 219.188 45.6163 219.127 45.309C219.065 45.0018 219.097 44.6833 219.217 44.3938C219.337 44.1044 219.54 43.857 219.8 43.683C220.061 43.5089 220.367 43.416 220.68 43.416C221.1 43.4176 221.502 43.585 221.798 43.8817C222.095 44.1784 222.263 44.5804 222.264 45V45Z" fill="#E0E0E0"/>
<path d="M228.876 74.562H224.634L223.848 76.506H220.956L225.378 66.486H228.174L232.614 76.506H229.662L228.876 74.562ZM228.042 72.468L226.752 69.264L225.468 72.468H228.042Z" fill="#E0E0E0"/>
<path d="M233.4 66.486H238.14C241.464 66.486 243.738 68.418 243.738 71.496C243.738 74.574 241.464 76.506 238.14 76.506H233.4V66.486ZM238.026 74.244C239.73 74.244 240.876 73.23 240.876 71.496C240.876 69.762 239.73 68.748 238.026 68.748H236.226V74.244H238.026Z" fill="#E0E0E0"/>
<path d="M244.536 75.6L245.466 73.506C246.457 74.1375 247.603 74.4803 248.778 74.496C249.948 74.496 250.41 74.166 250.41 73.68C250.41 72.09 244.71 73.254 244.71 69.528C244.71 67.728 246.168 66.276 249.15 66.276C250.417 66.2552 251.668 66.5567 252.786 67.152L251.91 69.258C251.062 68.7746 250.108 68.5087 249.132 68.484C247.932 68.484 247.518 68.886 247.518 69.384C247.518 70.92 253.2 69.774 253.2 73.464C253.2 75.21 251.742 76.704 248.76 76.704C247.276 76.7403 245.812 76.3577 244.536 75.6V75.6Z" fill="#E0E0E0"/>
<path d="M270.168 227.502C268.929 230.002 266.976 232.079 264.556 233.468C262.136 234.858 259.359 235.499 256.575 235.309C253.79 235.119 251.125 234.107 248.917 232.402C246.708 230.696 245.055 228.374 244.167 225.728C243.279 223.083 243.196 220.233 243.929 217.541C244.661 214.848 246.176 212.433 248.281 210.602C250.387 208.771 252.989 207.606 255.757 207.254C258.525 206.902 261.335 207.38 263.832 208.626C267.175 210.289 269.72 213.212 270.908 216.752C272.096 220.292 271.83 224.159 270.168 227.502V227.502Z" fill="#F5F5F5"/>
<path d="M267.168 226.008C266.219 227.911 264.727 229.49 262.881 230.545C261.034 231.599 258.917 232.083 256.795 231.933C254.674 231.784 252.645 231.008 250.965 229.705C249.284 228.402 248.029 226.629 247.356 224.612C246.684 222.595 246.625 220.423 247.187 218.372C247.749 216.322 248.907 214.484 250.515 213.091C252.122 211.699 254.106 210.815 256.216 210.551C258.326 210.287 260.467 210.655 262.368 211.608C264.914 212.881 266.85 215.114 267.75 217.814C268.65 220.514 268.441 223.462 267.168 226.008V226.008Z" fill="#EBEBEB"/>
<path d="M267.312 225.702C267.377 225.266 267.486 224.838 267.636 224.424C268.152 222.494 268.139 220.461 267.6 218.538C267.342 217.65 266.971 216.799 266.496 216.006C265.977 215.13 265.33 214.337 264.576 213.654C264.182 213.288 263.759 212.955 263.31 212.658C262.849 212.352 262.366 212.081 261.864 211.848C261.362 211.609 260.842 211.409 260.31 211.248C259.793 211.104 259.265 211 258.732 210.936C258.217 210.871 257.697 210.847 257.178 210.864C256.679 210.875 256.182 210.923 255.69 211.008C254.779 211.165 253.892 211.438 253.05 211.818C251.238 212.655 249.687 213.968 248.562 215.616C248.082 216.306 247.854 216.72 247.794 216.696C247.867 216.25 248.035 215.824 248.286 215.448C248.881 214.367 249.67 213.405 250.614 212.61C252.032 211.417 253.732 210.61 255.552 210.264C256.079 210.162 256.612 210.1 257.148 210.078C257.707 210.051 258.266 210.069 258.822 210.132C259.398 210.196 259.968 210.306 260.526 210.462C261.1 210.621 261.661 210.821 262.206 211.062C262.749 211.314 263.27 211.609 263.766 211.944C264.248 212.267 264.703 212.629 265.128 213.024C265.537 213.405 265.914 213.818 266.256 214.26C266.589 214.679 266.888 215.125 267.15 215.592C267.641 216.45 268.012 217.37 268.254 218.328C268.464 219.16 268.573 220.014 268.578 220.872C268.59 222.101 268.374 223.322 267.942 224.472C267.63 225.33 267.36 225.726 267.312 225.702Z" fill="#E0E0E0"/>
<path d="M255.78 227.484L254.964 229.2L253.464 228.474L254.25 226.83C252.933 226.147 251.836 225.107 251.082 223.83L252.792 222.39C253.365 223.408 254.192 224.259 255.192 224.862L256.392 222.348C254.916 221.148 253.314 219.684 254.352 217.548C255.12 215.952 256.938 215.148 259.446 216.012L260.256 214.344L261.762 215.064L261 216.66C262.049 217.243 262.945 218.065 263.616 219.06L261.972 220.554C261.462 219.799 260.805 219.154 260.04 218.658L258.81 221.22C260.292 222.42 261.864 223.854 260.844 225.978C260.076 227.532 258.282 228.336 255.78 227.484ZM257.472 220.104L258.504 217.968C257.616 217.764 257.094 218.052 256.854 218.568C256.614 219.084 256.914 219.6 257.472 220.104ZM258.318 224.982C258.57 224.454 258.276 223.956 257.718 223.422L256.716 225.498C257.568 225.696 258.084 225.462 258.318 225V224.982Z" fill="#E0E0E0"/>
<path d="M280.056 281.736C280.056 281.82 221.826 281.892 150.006 281.892C78.186 281.892 19.944 281.82 19.944 281.736C19.944 281.652 78.144 281.58 150.006 281.58C221.868 281.58 280.056 281.646 280.056 281.736Z" fill="#263238"/>
<path d="M173.334 125.04L171.972 180.312C171.744 189.714 169.482 203.472 154.638 202.428C141.828 200.556 138.864 188.25 139.092 179.478C139.2 175.32 139.278 171.852 139.26 171.42C139.26 171.42 125.22 169.752 124.548 155.82C124.224 149.076 124.68 135.138 125.244 122.526C125.54 115.996 128.283 109.816 132.928 105.217C137.573 100.618 143.779 97.9355 150.312 97.704L151.656 97.656C166.2 97.962 174.06 110.502 173.334 125.04Z" fill="#FFBE9D"/>
<path d="M139.26 171.42C139.26 171.42 148.074 171.624 157.26 165.42C157.26 165.42 153.192 175.776 139.218 175.02L139.26 171.42Z" fill="#EB996E"/>
<path d="M148.8 129.09C149.064 129.384 150.72 128.148 153.054 128.172C155.388 128.196 157.08 129.372 157.338 129.114C157.464 128.982 157.194 128.46 156.456 127.914C155.457 127.193 154.256 126.804 153.024 126.804C151.808 126.792 150.62 127.175 149.64 127.896C148.926 128.436 148.68 128.958 148.8 129.09Z" fill="#263238"/>
<path d="M148.356 134.4C148.369 134.891 148.573 135.358 148.925 135.701C149.276 136.044 149.749 136.236 150.24 136.236C150.481 136.247 150.722 136.21 150.948 136.127C151.174 136.043 151.381 135.915 151.557 135.75C151.732 135.585 151.873 135.386 151.971 135.165C152.068 134.945 152.12 134.707 152.124 134.466C152.112 133.975 151.907 133.508 151.556 133.165C151.204 132.822 150.731 132.63 150.24 132.63C149.999 132.619 149.759 132.656 149.532 132.739C149.306 132.823 149.099 132.951 148.923 133.116C148.748 133.281 148.607 133.48 148.509 133.701C148.412 133.921 148.36 134.159 148.356 134.4Z" fill="#263238"/>
<path d="M142.374 145.08C142.374 144.96 141.036 144.78 138.87 144.576C138.318 144.54 137.796 144.45 137.67 144.084C137.606 143.519 137.715 142.948 137.982 142.446C138.45 141.102 138.936 139.692 139.452 138.246C141.486 132.246 142.938 127.284 142.698 127.206C142.458 127.128 140.604 131.94 138.57 137.958C138.078 139.438 137.61 140.856 137.166 142.212C136.986 142.842 136.65 143.562 136.962 144.372C137.049 144.562 137.178 144.729 137.339 144.862C137.5 144.995 137.689 145.09 137.892 145.14C138.198 145.213 138.513 145.245 138.828 145.236C141 145.242 142.368 145.2 142.374 145.08Z" fill="#263238"/>
<path d="M150.126 120.366C150.33 120.894 152.214 120.57 154.44 120.768C156.666 120.966 158.49 121.524 158.766 121.038C158.892 120.804 158.562 120.318 157.818 119.838C156.841 119.233 155.731 118.877 154.584 118.8C153.442 118.698 152.292 118.879 151.236 119.328C150.432 119.682 150.036 120.114 150.126 120.366Z" fill="#263238"/>
<path d="M127.53 120.828C127.758 121.26 129.594 120.858 131.802 120.87C134.01 120.882 135.822 121.236 136.074 120.804C136.182 120.6 135.834 120.204 135.078 119.844C134.059 119.392 132.953 119.167 131.838 119.184C130.712 119.178 129.598 119.409 128.568 119.862C127.8 120.228 127.428 120.6 127.53 120.828Z" fill="#263238"/>
<path d="M172.56 135.42C172.8 135.306 182.052 132.24 182.088 141.792C182.124 151.344 172.53 149.412 172.488 149.136C172.446 148.86 172.56 135.42 172.56 135.42Z" fill="#FFBE9D"/>
<path d="M175.416 145.506C175.458 145.506 175.584 145.62 175.86 145.752C176.261 145.912 176.707 145.912 177.108 145.752C178.116 145.38 178.956 143.772 178.998 142.05C179.022 141.225 178.86 140.404 178.524 139.65C178.432 139.352 178.27 139.081 178.05 138.859C177.831 138.638 177.561 138.473 177.264 138.378C177.073 138.329 176.87 138.348 176.692 138.432C176.513 138.517 176.369 138.661 176.286 138.84C176.16 139.104 176.22 139.296 176.172 139.314C176.124 139.332 175.962 139.152 176.04 138.762C176.09 138.524 176.221 138.312 176.412 138.162C176.541 138.061 176.688 137.987 176.846 137.944C177.003 137.901 177.168 137.889 177.33 137.91C177.723 137.987 178.089 138.163 178.395 138.421C178.701 138.679 178.935 139.011 179.076 139.386C179.491 140.211 179.697 141.126 179.676 142.05C179.622 143.976 178.644 145.776 177.276 146.184C177.02 146.259 176.75 146.275 176.486 146.233C176.223 146.19 175.972 146.089 175.752 145.938C175.434 145.74 175.38 145.524 175.416 145.506Z" fill="#EB996E"/>
<path d="M185.82 120.444C183.954 117.006 183.642 112.974 182.694 109.182C181.746 105.39 178.962 100.572 175.332 99.126C172.122 97.14 167.814 97.236 165.018 99.432C164.526 94.446 161.262 91.512 156.474 90.06C151.686 88.608 143.874 89.082 139.182 90.78C135.54 92.088 131.982 94.92 127.584 99.114C125.735 100.879 124.034 102.791 122.496 104.832L117.81 117.666L121.164 124.614C121.362 125.088 121.566 125.556 121.818 126.024L124.536 140.502C124.89 136.596 125.136 122.964 125.454 119.058C128.402 119.082 131.324 118.509 134.045 117.375C136.766 116.241 139.23 114.568 141.288 112.458C143.514 110.166 145.302 107.262 148.218 105.948C151.974 104.262 156.318 105.756 160.158 107.25L159.996 107.094C161.989 108.108 163.77 109.495 165.24 111.18C164.081 118.887 164.593 126.752 166.74 134.244C167.064 135.366 167.976 137.694 169.05 138.156C171.162 139.062 171.816 136.902 173.148 135.792C174.132 134.97 175.548 134.916 177.084 134.976C178.074 132.63 179.154 128.652 180.084 125.172C181.365 125.623 182.734 125.765 184.08 125.586C183.704 124.59 183.33 123.59 182.958 122.586C183.453 122.98 184.025 123.267 184.638 123.426C184.947 123.5 185.271 123.477 185.567 123.361C185.863 123.245 186.117 123.042 186.294 122.778C186.672 122.022 186.21 121.164 185.82 120.444Z" fill="#263238"/>
<path d="M161.514 102C162 102.406 162.451 102.852 162.864 103.332C163.917 104.7 164.596 106.32 164.832 108.03C165.023 109.202 165.098 110.39 165.054 111.576C165.012 112.86 164.856 114.228 164.706 115.668C164.522 117.181 164.432 118.704 164.436 120.228C164.447 121.033 164.521 121.835 164.658 122.628C164.749 123.481 165.056 124.297 165.552 124.998C165.784 125.278 166.084 125.492 166.424 125.62C166.764 125.749 167.131 125.787 167.49 125.73C168.176 125.628 168.81 125.301 169.29 124.8C170.226 123.786 170.49 122.472 170.76 121.308L170.466 121.338C170.849 122.408 171.382 123.418 172.05 124.338C172.7 125.182 173.649 125.745 174.702 125.91C175.193 125.979 175.694 125.911 176.148 125.712C176.57 125.514 176.922 125.192 177.156 124.788C177.374 124.425 177.492 124.011 177.498 123.588C177.495 123.185 177.351 122.797 177.09 122.49L176.94 122.616C177.73 123.597 178.72 124.399 179.844 124.968C180.14 125.118 180.444 125.25 180.756 125.364C180.863 125.405 180.974 125.437 181.086 125.46C180.991 125.398 180.888 125.349 180.78 125.316C180.576 125.22 180.27 125.088 179.898 124.878C178.813 124.273 177.86 123.457 177.096 122.478L176.94 122.604C177.153 122.907 177.267 123.269 177.267 123.639C177.267 124.009 177.153 124.371 176.94 124.674C176.723 125.03 176.406 125.314 176.028 125.49C175.616 125.665 175.163 125.721 174.72 125.652C173.738 125.49 172.857 124.955 172.26 124.158C171.616 123.266 171.102 122.286 170.736 121.248L170.55 120.792L170.442 121.272C170.178 122.43 169.89 123.672 169.038 124.608C168.606 125.056 168.039 125.349 167.424 125.442C167.122 125.49 166.812 125.46 166.524 125.355C166.237 125.25 165.98 125.074 165.78 124.842C165.32 124.184 165.035 123.42 164.952 122.622C164.819 121.841 164.745 121.05 164.73 120.258C164.721 118.746 164.805 117.235 164.982 115.734C165.126 114.294 165.27 112.92 165.3 111.618C165.335 110.412 165.245 109.205 165.03 108.018C164.769 106.279 164.046 104.642 162.936 103.278C162.538 102.774 162.057 102.342 161.514 102Z" fill="#455A64"/>
<path d="M127.536 129.18C127.8 129.474 129.456 128.238 131.79 128.262C134.124 128.286 135.816 129.462 136.074 129.204C136.2 129.072 135.93 128.55 135.192 128.004C134.195 127.283 132.996 126.895 131.766 126.894C130.548 126.884 129.359 127.267 128.376 127.986C127.656 128.526 127.404 129.054 127.536 129.18Z" fill="#263238"/>
<path d="M128.934 133.698C128.948 134.19 129.153 134.657 129.506 135C129.859 135.343 130.332 135.534 130.824 135.534C131.064 135.544 131.304 135.507 131.53 135.423C131.755 135.339 131.962 135.211 132.137 135.046C132.312 134.881 132.452 134.682 132.549 134.462C132.646 134.242 132.698 134.005 132.702 133.764C132.689 133.273 132.485 132.806 132.134 132.463C131.782 132.12 131.309 131.928 130.818 131.928C130.577 131.917 130.337 131.954 130.11 132.037C129.884 132.121 129.677 132.249 129.501 132.414C129.326 132.579 129.185 132.778 129.087 132.999C128.99 133.219 128.938 133.457 128.934 133.698Z" fill="#263238"/>
<path d="M123.726 103.272C122.526 104.808 120.642 106.188 118.698 105.93C117.997 105.761 117.309 105.54 116.64 105.27C115.944 105.666 116.04 108 116.502 108.66C116.934 109.215 117.412 109.733 117.93 110.208C115.608 111.378 113.544 110.724 111.126 109.77C111.315 111.857 112.049 113.859 113.254 115.573C114.46 117.287 116.095 118.655 117.996 119.538C119.196 120.084 120.696 120.402 121.836 119.706C122.838 119.106 123.27 117.906 123.594 116.748C124.793 112.598 125.474 108.315 125.622 103.998L123.726 103.272Z" fill="#263238"/>
<path d="M144.396 149.766C144.559 149.465 144.8 149.213 145.093 149.035C145.386 148.858 145.721 148.762 146.064 148.758C146.712 148.758 147.264 148.698 147.738 149.148C148.188 149.581 148.493 150.143 148.613 150.756C148.732 151.369 148.659 152.004 148.404 152.574C148.121 153.131 147.64 153.563 147.055 153.785C146.47 154.007 145.824 154.003 145.242 153.774C144.108 153.252 143.658 150.33 144.444 149.358" fill="#EB996E"/>
<path d="M144 151.848C144.093 152.025 144.176 152.207 144.246 152.394C144.36 152.634 144.522 152.849 144.721 153.025C144.92 153.201 145.152 153.335 145.404 153.42C145.78 153.529 146.174 153.562 146.563 153.516C146.951 153.469 147.327 153.345 147.666 153.15C148.046 152.866 148.331 152.474 148.485 152.026C148.639 151.577 148.654 151.093 148.53 150.635C148.405 150.178 148.145 149.768 147.785 149.46C147.424 149.152 146.979 148.96 146.508 148.908C146.121 148.864 145.728 148.919 145.368 149.067C145.007 149.215 144.689 149.451 144.444 149.754C144.119 150.181 143.95 150.706 143.964 151.242C143.964 151.626 144.03 151.842 144 151.842C143.97 151.842 143.97 151.794 143.934 151.692C143.887 151.546 143.857 151.395 143.844 151.242C143.779 150.666 143.931 150.086 144.27 149.616C144.529 149.268 144.875 148.993 145.272 148.818C145.67 148.644 146.106 148.575 146.538 148.62C147.073 148.67 147.58 148.883 147.991 149.23C148.401 149.577 148.696 150.041 148.835 150.561C148.974 151.08 148.951 151.629 148.769 152.135C148.587 152.641 148.254 153.079 147.816 153.39C147.44 153.6 147.024 153.729 146.596 153.77C146.167 153.81 145.735 153.76 145.326 153.624C145.052 153.521 144.803 153.36 144.597 153.153C144.39 152.947 144.229 152.698 144.126 152.424C144.063 152.283 144.021 152.133 144 151.98C144 151.902 144 151.848 144 151.848Z" fill="#263238"/>
<path d="M161.622 101.934C161.231 101.275 160.754 100.67 160.206 100.134C158.661 98.7271 156.687 97.8816 154.602 97.734C153.173 97.6328 151.738 97.8017 150.372 98.232C148.804 98.7306 147.316 99.4542 145.956 100.38C143.046 102.306 140.472 105.18 137.658 108.09C136.294 109.518 134.817 110.834 133.242 112.026C131.769 113.144 130.129 114.022 128.382 114.63C125.384 115.588 122.17 115.641 119.142 114.78C117.109 114.221 115.209 113.258 113.556 111.948L112.8 111.312C112.584 111.126 112.428 110.94 112.29 110.802L111.984 110.478C111.918 110.406 111.882 110.364 111.888 110.358L112.008 110.454L112.332 110.754C112.476 110.886 112.644 111.066 112.86 111.246L113.616 111.846C115.279 113.101 117.17 114.022 119.184 114.558C122.17 115.375 125.329 115.302 128.274 114.348C129.999 113.746 131.618 112.877 133.074 111.774C134.63 110.586 136.092 109.28 137.448 107.868C140.25 104.988 142.848 102.078 145.812 100.134C147.198 99.198 148.714 98.4721 150.312 97.98C151.711 97.5504 153.179 97.3896 154.638 97.506C156.761 97.6775 158.761 98.5735 160.302 100.044C160.709 100.446 161.065 100.895 161.364 101.382C161.448 101.544 161.52 101.67 161.574 101.772C161.628 101.874 161.628 101.928 161.622 101.934Z" fill="#455A64"/>
<path d="M133.908 176.046L139.2 174.996L171.936 172.974L178.914 174.876L177.996 191.868L162.222 201.93L146.922 201.624L137.298 192.864L135.168 184.17L133.908 176.046Z" fill="#FFBE9D"/>
<path d="M223.2 202.8C221.341 198.924 219.241 195.169 216.912 191.556C213.155 185.791 207.411 181.608 200.772 179.802L175.572 172.968C175.572 172.968 174.264 198.168 156.918 198.168C139.572 198.168 136.194 174.546 136.194 174.546L107.004 186.192C106.002 186.582 99.234 188.922 91.356 205.812C83.856 221.898 80.556 230.124 80.556 230.124L110.592 238.8L112.47 265.842L111.834 281.286L203.088 281.082L202.578 263.43L202.962 236.364L204.102 238.206L234.474 226.026C234.474 226.026 230.562 218.01 223.2 202.8Z" fill="#FF5E00"/>
<path d="M203.4 219.144C203.538 219.144 203.454 228.924 203.22 240.984C202.986 253.044 202.71 262.8 202.578 262.8C202.446 262.8 202.524 253.02 202.758 240.96C202.992 228.9 203.292 219.144 203.4 219.144Z" fill="#263238"/>
<path d="M106.044 213.6C106.197 213.919 106.31 214.255 106.38 214.602C106.56 215.256 106.806 216.21 107.094 217.386C107.664 219.75 108.372 223.026 109.032 226.674C109.692 230.322 110.16 233.646 110.448 236.052C110.592 237.252 110.7 238.236 110.754 238.914C110.806 239.264 110.818 239.618 110.79 239.97C110.671 239.637 110.594 239.29 110.562 238.938C110.442 238.164 110.292 237.216 110.112 236.1C109.74 233.7 109.206 230.4 108.552 226.758C107.898 223.116 107.244 219.84 106.752 217.464C106.53 216.354 106.344 215.412 106.188 214.644C106.101 214.302 106.053 213.952 106.044 213.6Z" fill="#263238"/>
<path d="M83.124 230.886L70.896 255.432C69.532 258.173 68.8937 261.218 69.042 264.276C69.2654 268.865 71.2454 273.192 74.5717 276.361C77.898 279.529 82.3159 281.297 86.91 281.298L121.974 279.264L123.51 263.268L96.828 256.83L106.938 237.714L83.124 230.886Z" fill="#FFBE9D"/>
<path d="M96.828 256.83C96.828 256.944 95.628 256.74 93.678 256.752C91.1591 256.801 88.6632 257.243 86.28 258.06C83.8995 258.856 81.6687 260.044 79.68 261.576C78.168 262.776 77.448 263.754 77.364 263.694C77.28 263.634 77.49 263.406 77.808 262.956C78.2825 262.335 78.8171 261.762 79.404 261.246C81.3766 259.571 83.6544 258.294 86.112 257.484C88.5529 256.641 91.1268 256.248 93.708 256.326C94.4863 256.355 95.2609 256.447 96.024 256.602C96.3028 256.633 96.5745 256.71 96.828 256.83Z" fill="#EB996E"/>
<path d="M107.364 237.522C107.257 238.174 107.055 238.807 106.764 239.4C106.19 240.867 105.519 242.294 104.754 243.672C103.995 245.054 103.143 246.383 102.204 247.65C101.851 248.204 101.419 248.704 100.92 249.132C100.806 249.048 102.57 246.642 104.334 243.438C106.098 240.234 107.232 237.474 107.364 237.522Z" fill="#EB996E"/>
<path d="M233.226 281.214H192.054V265.674L215.898 255.6L207.054 237.066L230.922 227.466L242.574 253.386C245.28 260.916 248.046 264.492 245.688 271.344C244.464 274.902 239.4 281.214 233.226 281.214Z" fill="#FFBE9D"/>
<path d="M116.646 262.338H123.51C123.51 262.338 138.996 256.74 142.182 257.274C145.05 257.754 155.556 264.732 157.614 266.112C157.842 266.268 158.015 266.49 158.112 266.748C158.313 267.295 158.294 267.898 158.061 268.431C157.827 268.965 157.396 269.387 156.858 269.61L156.642 269.7L156.732 270.012C156.856 270.418 156.911 270.842 156.894 271.266C156.871 271.588 156.745 271.894 156.535 272.14C156.326 272.386 156.043 272.558 155.728 272.631C155.414 272.704 155.084 272.674 154.787 272.546C154.491 272.418 154.243 272.199 154.08 271.92L154.476 272.622C154.636 272.909 154.711 273.236 154.692 273.564L154.656 274.206C154.636 274.554 154.51 274.888 154.296 275.164C154.082 275.439 153.789 275.643 153.456 275.748C153.142 275.85 152.806 275.859 152.486 275.775C152.167 275.691 151.879 275.517 151.656 275.274C150.324 273.81 147.456 270.876 145.5 270.552C143.392 270.294 141.269 270.186 139.146 270.228C138.712 270.231 138.289 270.364 137.932 270.61C137.575 270.856 137.299 271.204 137.142 271.608C138.3 271.692 146.346 275.886 149.196 277.386C149.637 277.607 150.018 277.931 150.307 278.331C150.595 278.732 150.782 279.196 150.852 279.684C150.954 280.572 150.504 281.484 148.74 281.094C144.96 280.212 138.15 277.08 138.15 277.08C138.15 277.08 134.634 276.078 132.36 277.68C129.156 279.942 127.692 280.77 124.944 279.858C123.265 279.302 121.655 278.558 120.144 277.638L114.744 277.098C114.744 277.098 109.644 264.3 116.646 262.338Z" fill="#FFBE9D"/>
<path d="M137.1 264.954C137.1 265.014 138.198 264.666 140.01 264.546C142.37 264.387 144.734 264.789 146.909 265.718C149.084 266.647 151.009 268.077 152.526 269.892C153.141 270.662 153.716 271.463 154.248 272.292C154.164 272.039 154.049 271.797 153.906 271.572C153.556 270.94 153.155 270.338 152.706 269.772C151.201 267.892 149.254 266.415 147.038 265.473C144.822 264.531 142.408 264.152 140.01 264.372C139.289 264.431 138.574 264.554 137.874 264.738C137.608 264.779 137.349 264.852 137.1 264.954Z" fill="#EB996E"/>
<path d="M138.738 261.192C139.723 260.895 140.741 260.718 141.768 260.664C144.253 260.653 146.69 261.343 148.8 262.656C150.896 263.999 152.804 265.613 154.476 267.456L156.036 269.106C156.216 269.325 156.417 269.526 156.636 269.706C156.484 269.473 156.313 269.252 156.126 269.046C155.784 268.632 155.28 268.038 154.638 267.324C152.989 265.422 151.076 263.767 148.956 262.41C146.801 261.064 144.296 260.386 141.756 260.46C140.991 260.496 140.234 260.635 139.506 260.874C139.302 260.935 139.101 261.01 138.906 261.096C138.798 261.144 138.732 261.18 138.738 261.192Z" fill="#EB996E"/>
<path d="M202.11 262.8H195.24C195.24 262.8 179.754 257.202 176.568 257.736C173.7 258.216 163.194 265.194 161.136 266.574C160.908 266.73 160.735 266.952 160.638 267.21C160.439 267.757 160.458 268.359 160.691 268.892C160.925 269.425 161.355 269.848 161.892 270.072L162.108 270.162L162.018 270.474C161.893 270.88 161.839 271.304 161.856 271.728C161.879 272.05 162.005 272.356 162.215 272.602C162.424 272.848 162.707 273.02 163.022 273.093C163.336 273.166 163.666 273.136 163.963 273.008C164.259 272.88 164.507 272.661 164.67 272.382L164.274 273.084C164.117 273.372 164.043 273.698 164.058 274.026L164.094 274.662C164.112 275.011 164.236 275.346 164.451 275.622C164.666 275.898 164.96 276.101 165.294 276.204C165.607 276.308 165.944 276.319 166.263 276.236C166.583 276.153 166.871 275.979 167.094 275.736C168.426 274.266 171.294 271.332 173.25 271.008C175.36 270.755 177.485 270.649 179.61 270.69C180.043 270.694 180.464 270.828 180.821 271.074C181.177 271.32 181.451 271.667 181.608 272.07C180.45 272.148 172.404 276.348 169.554 277.848C169.113 278.068 168.733 278.391 168.444 278.79C168.156 279.19 167.968 279.653 167.898 280.14C167.796 281.034 168.246 281.97 170.01 281.556C173.79 280.674 180.6 277.542 180.6 277.542C180.6 277.542 184.116 276.534 186.39 278.142C189.594 280.404 191.058 281.232 193.806 280.32C195.486 279.766 197.096 279.021 198.606 278.1L204.006 277.56C204.006 277.56 209.112 264.78 202.11 262.8Z" fill="#FFBE9D"/>
<path d="M181.65 265.434C181.65 265.494 180.552 265.146 178.74 265.032C176.376 264.869 174.007 265.269 171.828 266.198C169.648 267.127 167.719 268.56 166.2 270.378C165 271.764 164.526 272.778 164.478 272.778C164.564 272.528 164.679 272.288 164.82 272.064C165.17 271.432 165.571 270.83 166.02 270.264C167.525 268.384 169.472 266.907 171.688 265.965C173.904 265.023 176.318 264.644 178.716 264.864C179.437 264.925 180.151 265.045 180.852 265.224C181.125 265.265 181.392 265.336 181.65 265.434Z" fill="#EB996E"/>
<path d="M180 261.672C179.024 261.378 178.017 261.2 177 261.144C174.511 261.136 172.07 261.828 169.956 263.142C167.862 264.486 165.953 266.1 164.28 267.942L162.72 269.598C162.54 269.817 162.339 270.018 162.12 270.198C162.271 269.962 162.442 269.739 162.63 269.532C162.972 269.124 163.476 268.53 164.124 267.816C165.769 265.913 167.681 264.258 169.8 262.902C171.955 261.557 174.46 260.878 177 260.952C177.763 260.989 178.518 261.128 179.244 261.366C179.449 261.425 179.65 261.499 179.844 261.588C179.9 261.608 179.952 261.636 180 261.672Z" fill="#EB996E"/>
<path d="M234.288 256.68C234.252 256.734 233.358 256.08 231.738 255.33C231.336 255.15 230.892 254.952 230.394 254.784C229.896 254.616 229.374 254.448 228.81 254.286C226.343 253.634 223.77 253.485 221.244 253.848C220.644 253.95 220.116 254.028 219.612 254.166C219.139 254.27 218.673 254.4 218.214 254.556C216.522 255.108 215.556 255.654 215.526 255.6C215.733 255.439 215.959 255.304 216.198 255.198C216.461 255.043 216.736 254.908 217.02 254.796C217.386 254.626 217.76 254.476 218.142 254.346C218.604 254.176 219.074 254.032 219.552 253.914C220.096 253.77 220.646 253.654 221.202 253.566C223.764 253.162 226.383 253.312 228.882 254.004C229.452 254.184 229.998 254.334 230.484 254.544C230.945 254.717 231.396 254.918 231.834 255.144C232.248 255.33 232.59 255.546 232.902 255.744C233.168 255.894 233.425 256.06 233.67 256.242C233.891 256.365 234.099 256.512 234.288 256.68Z" fill="#EB996E"/>
<path d="M199.362 283.2H113.622C112.449 283.2 111.322 282.746 110.476 281.934C109.63 281.123 109.13 280.016 109.08 278.844L106.506 219.834C106.478 219.22 106.576 218.607 106.791 218.032C107.007 217.457 107.337 216.932 107.762 216.488C108.186 216.043 108.696 215.69 109.261 215.448C109.826 215.207 110.434 215.082 111.048 215.082H201.768C202.382 215.082 202.989 215.207 203.553 215.447C204.117 215.688 204.627 216.04 205.052 216.483C205.477 216.926 205.808 217.45 206.025 218.023C206.242 218.597 206.341 219.209 206.316 219.822L203.916 278.832C203.869 280.008 203.369 281.12 202.52 281.934C201.671 282.749 200.539 283.202 199.362 283.2Z" fill="#E0E0E0"/>
<path d="M199.362 283.2C199.639 283.182 199.916 283.15 200.19 283.104C200.992 282.952 201.737 282.582 202.344 282.036C202.838 281.597 203.231 281.055 203.495 280.449C203.759 279.843 203.889 279.187 203.874 278.526C203.934 276.954 204.004 275.144 204.084 273.096C204.408 264.924 204.87 253.104 205.446 238.494C205.59 234.838 205.742 231.016 205.902 227.028C205.98 225.036 206.064 223.002 206.142 220.932C206.142 220.416 206.202 219.882 206.184 219.378C206.153 218.867 206.033 218.366 205.83 217.896C205.423 216.935 204.684 216.151 203.748 215.688C203.278 215.452 202.77 215.3 202.248 215.238C201.732 215.196 201.174 215.238 200.628 215.238H176.436H113.544H111.456C110.78 215.2 110.104 215.302 109.47 215.538C108.845 215.78 108.283 216.161 107.828 216.653C107.372 217.145 107.035 217.734 106.842 218.376C106.749 218.695 106.689 219.023 106.662 219.354C106.662 219.684 106.662 220.02 106.662 220.368C106.692 221.052 106.716 221.736 106.746 222.42L106.926 226.506C107.158 231.938 107.39 237.282 107.622 242.538C108.078 253.05 108.516 263.184 108.936 272.844C108.99 274.044 109.038 275.244 109.092 276.444C109.092 277.044 109.14 277.644 109.17 278.244C109.162 278.823 109.234 279.401 109.386 279.96C109.724 281.057 110.475 281.98 111.48 282.534C111.972 282.805 112.512 282.978 113.07 283.044C113.616 283.104 114.204 283.074 114.774 283.08H128.1H152.016L186.642 283.128L196.056 283.158H198.504H199.338H198.504H196.056H186.642L152.016 283.206H128.1H114.798C114.198 283.206 113.658 283.206 113.058 283.17C112.159 283.06 111.31 282.692 110.615 282.111C109.92 281.53 109.408 280.76 109.14 279.894C108.981 279.308 108.904 278.702 108.912 278.094C108.882 277.494 108.858 276.894 108.828 276.294C108.78 275.094 108.728 273.894 108.672 272.694C108.246 263.034 107.802 252.894 107.34 242.388C107.112 237.132 106.878 231.788 106.638 226.356C106.578 225 106.524 223.638 106.464 222.27L106.374 220.218C106.356 219.87 106.356 219.522 106.374 219.174C106.4 218.819 106.462 218.467 106.56 218.124C106.767 217.437 107.128 216.806 107.616 216.28C108.103 215.754 108.705 215.346 109.374 215.088C110.045 214.838 110.759 214.728 111.474 214.764H113.562H176.454H200.646C201.198 214.764 201.732 214.764 202.296 214.794C202.848 214.857 203.384 215.018 203.88 215.268C204.872 215.76 205.654 216.593 206.082 217.614C206.294 218.111 206.42 218.641 206.454 219.18C206.454 219.726 206.454 220.23 206.412 220.752C206.328 222.828 206.244 224.862 206.16 226.854C205.992 230.854 205.832 234.676 205.68 238.32C205.08 252.924 204.57 264.72 204.222 272.916C204.134 274.96 204.056 276.76 203.988 278.316C203.997 278.987 203.86 279.653 203.586 280.266C203.313 280.879 202.909 281.426 202.404 281.868C201.785 282.414 201.027 282.779 200.214 282.924C200.016 282.958 199.815 282.978 199.614 282.984L199.362 283.2Z" fill="#263238"/>
<path d="M161.1 250.2C161.1 251.129 160.825 252.038 160.308 252.81C159.792 253.583 159.058 254.185 158.2 254.54C157.341 254.896 156.397 254.989 155.486 254.808C154.574 254.626 153.737 254.179 153.08 253.522C152.423 252.865 151.976 252.028 151.794 251.117C151.613 250.205 151.706 249.261 152.062 248.402C152.417 247.544 153.019 246.81 153.792 246.294C154.565 245.778 155.473 245.502 156.402 245.502C157.648 245.504 158.842 245.999 159.722 246.88C160.603 247.76 161.098 248.955 161.1 250.2Z" fill="white"/>
<path d="M283.14 120.36H196.152L196.596 181.302H206.1V195.39L218.97 181.302H283.584L283.14 120.36Z" fill="white"/>
<path d="M283.14 120.366C283.14 120.366 283.14 120.726 283.14 121.44C283.14 122.154 283.14 123.24 283.176 124.62C283.176 127.422 283.242 131.538 283.296 136.818C283.386 147.408 283.518 162.654 283.686 181.296V181.422H283.56L219 181.452L219.108 181.404L206.244 195.498L205.974 195.792V181.302L206.13 181.458H196.44V181.302C196.29 159.354 196.146 138.666 196.014 120.366V120.222H196.152L259.104 120.294L276.858 120.33H281.544H282.744H283.14H281.514H276.798L259.014 120.366L196.152 120.438L196.296 120.294C196.434 138.594 196.59 159.294 196.752 181.23L196.596 181.08H206.256V195.324L205.986 195.222L218.856 181.2L218.898 181.152H219H283.614L283.494 181.278C283.386 162.678 283.296 147.444 283.236 136.878C283.206 131.586 283.188 127.458 283.176 124.65C283.176 123.246 283.176 122.178 283.176 121.446C283.176 120.714 283.14 120.366 283.14 120.366Z" fill="#263238"/>
<path d="M282.696 128.958C282.696 129.03 263.424 129.096 239.652 129.096C215.88 129.096 196.596 129.03 196.596 128.958C196.596 128.886 215.868 128.82 239.652 128.82C263.436 128.82 282.696 128.88 282.696 128.958Z" fill="#263238"/>
<path d="M200.166 126.804C200.802 126.804 201.318 126.24 201.318 125.544C201.318 124.848 200.802 124.284 200.166 124.284C199.53 124.284 199.014 124.848 199.014 125.544C199.014 126.24 199.53 126.804 200.166 126.804Z" fill="#E0E0E0"/>
<path d="M203.574 126.804C204.21 126.804 204.726 126.24 204.726 125.544C204.726 124.848 204.21 124.284 203.574 124.284C202.938 124.284 202.422 124.848 202.422 125.544C202.422 126.24 202.938 126.804 203.574 126.804Z" fill="#E0E0E0"/>
<path d="M206.976 126.804C207.612 126.804 208.128 126.24 208.128 125.544C208.128 124.848 207.612 124.284 206.976 124.284C206.34 124.284 205.824 124.848 205.824 125.544C205.824 126.24 206.34 126.804 206.976 126.804Z" fill="#E0E0E0"/>
<path d="M240.846 163.08C247.622 163.08 253.116 157.587 253.116 150.81C253.116 144.033 247.622 138.54 240.846 138.54C234.069 138.54 228.576 144.033 228.576 150.81C228.576 157.587 234.069 163.08 240.846 163.08Z" fill="#FF5E00"/>
<path d="M237.888 154.398V147.162C237.888 147.081 237.909 147.002 237.949 146.932C237.99 146.862 238.048 146.803 238.117 146.763C238.187 146.722 238.267 146.7 238.347 146.7C238.428 146.699 238.508 146.72 238.578 146.76L245.046 150.408C245.117 150.448 245.176 150.507 245.217 150.577C245.259 150.648 245.28 150.728 245.28 150.81C245.28 150.892 245.259 150.972 245.217 151.043C245.176 151.113 245.117 151.172 245.046 151.212L238.572 154.812C238.501 154.853 238.421 154.874 238.339 154.873C238.257 154.873 238.177 154.85 238.107 154.807C238.038 154.765 237.98 154.705 237.942 154.633C237.903 154.561 237.885 154.48 237.888 154.398Z" fill="white"/>
<path d="M277.026 173.562H201.912V173.934H277.026V173.562Z" fill="#263238"/>
<path d="M225.324 173.154H201.852V174.15H225.324V173.154Z" fill="#FF5E00"/>
<path d="M224.94 174.996C225.57 174.996 226.08 174.437 226.08 173.748C226.08 173.059 225.57 172.5 224.94 172.5C224.31 172.5 223.8 173.059 223.8 173.748C223.8 174.437 224.31 174.996 224.94 174.996Z" fill="#FF5E00"/>
<path d="M282.48 131.298C287.053 131.298 290.76 127.591 290.76 123.018C290.76 118.445 287.053 114.738 282.48 114.738C277.907 114.738 274.2 118.445 274.2 123.018C274.2 127.591 277.907 131.298 282.48 131.298Z" fill="#FF5E00"/>
<path d="M285.707 120.971L284.528 119.792L279.25 125.07L280.429 126.249L285.707 120.971Z" fill="white"/>
<path d="M280.427 119.779L279.248 120.958L284.526 126.236L285.705 125.057L280.427 119.779Z" fill="white"/>
<path d="M119.034 21.888V81.474H173.454L185.214 90.57V81.474V79.14V21.888H119.034Z" fill="white"/>
<path d="M119.034 21.888H120.234H123.762L137.196 21.852L185.196 21.786H185.328V21.918C185.328 41.028 185.328 63.564 185.328 87.6V90.918L185.076 90.726L173.358 81.6L173.454 81.63H119.034H118.902V81.498C118.932 63.498 118.95 48.618 118.968 38.196C118.968 33 118.968 28.926 119.004 26.148C119.004 24.768 119.004 23.706 119.004 22.986C119.004 22.266 119.004 21.912 119.004 21.912C119.004 21.912 119.004 22.296 119.004 23.016C119.004 23.736 119.004 24.816 119.004 26.202C119.004 28.986 119.004 33.072 119.034 38.274C119.034 48.678 119.076 63.558 119.1 81.474L118.974 81.348H173.394H173.448L173.49 81.378L185.25 90.468L184.998 90.594V87.594C184.998 63.558 184.998 41.022 184.998 21.912L185.136 22.05L137.208 21.978L123.744 21.948H120.186H119.268L119.034 21.888Z" fill="#263238"/>
<path d="M184.848 33.204C184.848 33.3 170.256 33.384 152.268 33.384C134.28 33.384 119.688 33.3 119.688 33.204C119.688 33.108 134.274 33.024 152.268 33.024C170.262 33.024 184.848 33.102 184.848 33.204Z" fill="#263238"/>
<path d="M126.42 28.764C126.42 29.0902 126.323 29.4089 126.141 29.6798C125.959 29.9506 125.701 30.1613 125.399 30.285C125.098 30.4087 124.766 30.4398 124.446 30.3744C124.127 30.309 123.834 30.15 123.605 29.9177C123.376 29.6854 123.221 29.3902 123.161 29.0698C123.1 28.7493 123.136 28.418 123.264 28.1181C123.392 27.8181 123.607 27.563 123.88 27.3853C124.154 27.2076 124.474 27.1152 124.8 27.12C125.232 27.1263 125.644 27.3023 125.947 27.6099C126.25 27.9175 126.42 28.3321 126.42 28.764Z" fill="#E0E0E0"/>
<path d="M131.268 28.764C131.268 29.0894 131.171 29.4075 130.99 29.678C130.81 29.9485 130.552 30.1592 130.252 30.2834C129.951 30.4077 129.62 30.4399 129.301 30.376C128.982 30.312 128.689 30.1549 128.459 29.9243C128.23 29.6938 128.074 29.4003 128.011 29.081C127.948 28.7617 127.981 28.431 128.107 28.1307C128.232 27.8304 128.444 27.5741 128.715 27.3941C128.986 27.2142 129.305 27.1188 129.63 27.12C129.846 27.12 130.059 27.1626 130.258 27.2453C130.457 27.3279 130.638 27.4491 130.79 27.6019C130.943 27.7546 131.063 27.9359 131.145 28.1353C131.227 28.3347 131.269 28.5484 131.268 28.764Z" fill="#E0E0E0"/>
<path d="M136.122 28.764C136.122 29.0892 136.026 29.407 135.845 29.6774C135.664 29.9477 135.408 30.1584 135.107 30.2829C134.807 30.4073 134.476 30.4398 134.157 30.3764C133.838 30.313 133.545 30.1564 133.315 29.9265C133.086 29.6966 132.929 29.4036 132.866 29.0847C132.802 28.7658 132.835 28.4353 132.959 28.1349C133.084 27.8345 133.294 27.5777 133.565 27.3971C133.835 27.2164 134.153 27.12 134.478 27.12C134.914 27.12 135.332 27.2932 135.64 27.6015C135.949 27.9098 136.122 28.328 136.122 28.764Z" fill="#E0E0E0"/>
<path d="M173.004 54.846C173.099 58.4918 172.11 62.0839 170.163 65.1676C168.216 68.2514 165.398 70.6882 162.065 72.1696C158.733 73.651 155.035 74.1104 151.442 73.4898C147.848 72.8691 144.519 71.1963 141.876 68.6829C139.233 66.1696 137.395 62.9288 136.595 59.3706C135.795 55.8124 136.069 52.0968 137.381 48.694C138.693 45.2913 140.986 42.3543 143.968 40.2549C146.95 38.1555 150.488 36.9879 154.134 36.9C159.016 36.7775 163.747 38.5994 167.286 41.965C170.824 45.3305 172.881 49.9639 173.004 54.846Z" fill="#FF5E00"/>
<path d="M168.6 54.954C168.673 57.7329 167.92 60.4709 166.436 62.8217C164.952 65.1725 162.804 67.0304 160.265 68.1603C157.725 69.2903 154.907 69.6415 152.167 69.1696C149.428 68.6977 146.89 67.4239 144.874 65.5093C142.859 63.5946 141.457 61.1253 140.845 58.4135C140.234 55.7018 140.44 52.8696 141.438 50.2752C142.437 47.6808 144.182 45.4408 146.454 43.8385C148.725 42.2363 151.421 41.3438 154.2 41.274C156.044 41.2245 157.88 41.5393 159.603 42.2004C161.325 42.8615 162.9 43.8559 164.238 45.1267C165.576 46.3974 166.649 47.9195 167.398 49.6058C168.146 51.2922 168.555 53.1096 168.6 54.954Z" fill="#FF5E00"/>
<g opacity="0.3">
<path opacity="0.3" d="M168.6 54.51C168.403 53.9662 168.264 53.4031 168.186 52.83C167.834 51.3281 167.253 49.8893 166.464 48.564C165.92 47.6607 165.276 46.8215 164.544 46.062C163.706 45.1905 162.758 44.4321 161.724 43.806C161.17 43.4661 160.59 43.1693 159.99 42.918C159.367 42.6462 158.723 42.4255 158.064 42.258C157.387 42.0794 156.697 41.953 156 41.88C155.28 41.8128 154.556 41.7968 153.834 41.832C153.11 41.8758 152.39 41.972 151.68 42.12C150.327 42.4113 149.026 42.907 147.822 43.59C147.255 43.9087 146.712 44.2676 146.196 44.664C145.24 45.403 144.383 46.262 143.646 47.22C143.005 48.058 142.458 48.9634 142.014 49.92C141.373 51.3247 140.954 52.8206 140.772 54.354C140.758 54.9302 140.683 55.5033 140.55 56.064C140.364 55.5039 140.299 54.911 140.358 54.324C140.38 52.7103 140.704 51.1149 141.312 49.62C141.733 48.5823 142.275 47.5976 142.926 46.686C143.683 45.6397 144.577 44.6994 145.584 43.89C146.127 43.445 146.705 43.0438 147.312 42.69C147.942 42.3188 148.6 41.9978 149.28 41.73C149.985 41.4514 150.712 41.2287 151.452 41.064C152.217 40.8998 152.993 40.7935 153.774 40.746C154.552 40.7087 155.332 40.7288 156.108 40.806C156.862 40.8864 157.608 41.0268 158.34 41.226C159.047 41.4293 159.737 41.6881 160.404 42C161.046 42.2793 161.664 42.6104 162.252 42.99C164.3 44.2855 165.982 46.0849 167.136 48.216C167.899 49.6271 168.395 51.1669 168.6 52.758C168.725 53.3353 168.725 53.9327 168.6 54.51Z" fill="black"/>
</g>
<g opacity="0.3">
<path opacity="0.3" d="M156.366 63.63L156.456 66.072L154.272 66.156L154.182 63.756C152.24 63.7691 150.333 63.2347 148.68 62.214L149.778 59.508C151.066 60.3336 152.546 60.8111 154.074 60.894L153.936 57.246C151.488 56.754 148.746 56.046 148.626 52.926C148.542 50.61 150.144 48.558 153.576 48.036L153.486 45.636L155.67 45.552L155.76 47.952C157.325 47.9802 158.861 48.3791 160.242 49.116L159.258 51.846C158.208 51.2881 157.058 50.9454 155.874 50.838L156.012 54.546C158.46 55.02 161.154 55.746 161.274 58.806C161.358 61.056 159.774 63.084 156.366 63.63ZM153.81 54.03L153.69 50.934C152.544 51.24 152.112 51.888 152.136 52.608C152.16 53.328 152.838 53.796 153.81 54.06V54.03ZM157.77 59.148C157.74 58.386 157.092 57.996 156.138 57.702L156.252 60.702C157.338 60.462 157.8 59.88 157.8 59.178L157.77 59.148Z" fill="black"/>
</g>
<path d="M168.876 54.684C168.876 54.684 168.876 54.606 168.876 54.45C168.876 54.294 168.84 54.06 168.81 53.772L168.762 53.274C168.762 53.094 168.696 52.896 168.654 52.674C168.578 52.1784 168.466 51.689 168.318 51.21C167.948 49.886 167.379 48.6257 166.632 47.472C165.549 45.7773 164.121 44.3302 162.441 43.2249C160.761 42.1197 158.867 41.3813 156.882 41.058C154.381 40.6618 151.82 40.9372 149.46 41.856C148.821 42.1008 148.199 42.3895 147.6 42.72C147.005 43.0629 146.436 43.4479 145.896 43.872C145.339 44.3022 144.812 44.7693 144.318 45.27C143.834 45.7998 143.383 46.3589 142.968 46.944C142.116 48.1456 141.464 49.4767 141.036 50.886C140.13 53.8035 140.206 56.9377 141.252 59.808C141.748 61.1948 142.463 62.4932 143.37 63.654C143.811 64.2184 144.288 64.7536 144.798 65.256C145.316 65.7314 145.863 66.1743 146.436 66.582C147.544 67.3771 148.769 67.9963 150.066 68.418C152.467 69.2216 155.038 69.3748 157.518 68.862C159.676 68.4108 161.698 67.4593 163.422 66.084C164.848 64.9551 166.046 63.5641 166.95 61.986C167.639 60.8067 168.147 59.5304 168.456 58.2C168.581 57.7132 168.669 57.2179 168.72 56.718C168.75 56.502 168.786 56.304 168.804 56.118C168.822 55.932 168.804 55.764 168.804 55.614C168.804 55.332 168.804 55.104 168.84 54.936C168.836 54.86 168.836 54.784 168.84 54.708C168.849 54.7837 168.849 54.8603 168.84 54.936V55.62C168.84 55.77 168.84 55.938 168.84 56.124C168.84 56.31 168.798 56.508 168.774 56.724C168.753 57.2197 168.695 57.713 168.6 58.2C168.311 59.5596 167.815 60.8668 167.13 62.076C165.489 64.9973 162.88 67.2548 159.753 68.4595C156.626 69.6642 153.177 69.7408 150 68.676C149.348 68.4601 148.71 68.2015 148.092 67.902C147.466 67.5829 146.864 67.2179 146.292 66.81C145.703 66.3998 145.141 65.9508 144.612 65.466C144.09 64.9529 143.603 64.4057 143.154 63.828C142.221 62.6448 141.487 61.3174 140.982 59.898C139.912 56.9639 139.836 53.7595 140.766 50.778C141.203 49.3372 141.871 47.9773 142.746 46.752C143.168 46.154 143.629 45.5847 144.126 45.048C144.632 44.5407 145.169 44.0657 145.734 43.626C146.288 43.1869 146.871 42.786 147.48 42.426C148.081 42.0954 148.705 41.8067 149.346 41.562C151.748 40.6452 154.351 40.3823 156.888 40.8C158.907 41.136 160.831 41.8985 162.532 43.0365C164.232 44.1746 165.671 45.6621 166.752 47.4C167.495 48.574 168.053 49.8549 168.408 51.198C168.547 51.6841 168.651 52.1793 168.72 52.68C168.75 52.896 168.792 53.094 168.81 53.28C168.828 53.466 168.81 53.628 168.81 53.778C168.81 54.066 168.822 54.294 168.846 54.462C168.863 54.5349 168.873 54.6092 168.876 54.684Z" fill="#263238"/>
<path d="M191.17 28.2094C194.661 24.7181 194.661 19.0576 191.17 15.5663C187.679 12.0751 182.018 12.0751 178.527 15.5664C175.036 19.0576 175.036 24.7181 178.527 28.2094C182.018 31.7007 187.679 31.7007 191.17 28.2094Z" fill="#FF5E00"/>
<path d="M188.331 19.678L187.059 18.4052L181.361 24.1031L182.633 25.3759L188.331 19.678Z" fill="white"/>
<path d="M182.632 18.3987L181.359 19.6715L187.057 25.3693L188.33 24.0965L182.632 18.3987Z" fill="white"/>
<path d="M102.33 165.762H102.27V93.408H11.97V165.96H90.57L102.33 177.726V165.762Z" fill="white"/>
<path d="M102.33 165.762C102.33 165.762 102.33 166.02 102.33 166.536C102.33 167.052 102.33 167.82 102.33 168.828C102.33 170.856 102.33 173.85 102.33 177.726V177.834L102.252 177.756L90.474 166.008H90.522L11.922 166.056H11.808V165.942C11.808 146.238 11.808 124.59 11.808 101.916V93.288H11.928H102.234H102.336V93.384C102.336 115.26 102.3 133.302 102.294 145.902C102.294 152.202 102.294 157.14 102.264 160.512C102.264 162.198 102.264 163.512 102.264 164.376C102.264 164.814 102.264 165.15 102.264 165.378C102.264 165.606 102.264 165.732 102.264 165.738C102.258 165.618 102.258 165.498 102.264 165.378C102.264 165.15 102.264 164.814 102.264 164.376C102.264 163.494 102.264 162.198 102.264 160.512C102.264 157.14 102.264 152.202 102.234 145.902C102.234 133.302 102.234 115.26 102.192 93.384L102.294 93.486H11.988L12.114 93.36V101.886C12.114 124.56 12.114 146.208 12.114 165.912L11.994 165.798L90.594 165.846L102.342 177.624L102.264 177.66C102.318 170.022 102.33 166.086 102.33 165.762Z" fill="#263238"/>
<path d="M102.27 101.478C102.27 101.55 82.056 101.604 57.12 101.604C32.184 101.604 11.964 101.55 11.964 101.478C11.964 101.406 32.178 101.352 57.12 101.352C82.062 101.352 102.27 101.4 102.27 101.478Z" fill="#263238"/>
<path d="M17.208 97.56C17.2091 97.786 17.1431 98.0072 17.0183 98.1956C16.8935 98.384 16.7156 98.531 16.507 98.6181C16.2984 98.7051 16.0687 98.7282 15.847 98.6844C15.6253 98.6406 15.4217 98.5319 15.2619 98.3721C15.1021 98.2123 14.9934 98.0086 14.9496 97.7869C14.9058 97.5652 14.9289 97.3355 15.0159 97.127C15.1029 96.9184 15.25 96.7404 15.4384 96.6156C15.6268 96.4908 15.848 96.4248 16.074 96.426C16.3742 96.4276 16.6618 96.5476 16.8741 96.7599C17.0864 96.9722 17.2064 97.2597 17.208 97.56Z" fill="#E0E0E0"/>
<path d="M20.574 97.56C20.5752 97.7857 20.5093 98.0067 20.3848 98.195C20.2603 98.3832 20.0826 98.5303 19.8744 98.6175C19.6662 98.7047 19.4368 98.7281 19.2153 98.6848C18.9938 98.6415 18.7901 98.5334 18.63 98.3742C18.47 98.215 18.3608 98.0119 18.3164 97.7906C18.2719 97.5693 18.2941 97.3398 18.3802 97.1311C18.4663 96.9225 18.6124 96.7441 18.8 96.6185C18.9876 96.493 19.2083 96.426 19.434 96.426C19.7353 96.426 20.0244 96.5453 20.238 96.7578C20.4516 96.9703 20.5724 97.2587 20.574 97.56Z" fill="#E0E0E0"/>
<path d="M22.8 98.7C23.4296 98.7 23.94 98.1896 23.94 97.56C23.94 96.9304 23.4296 96.42 22.8 96.42C22.1704 96.42 21.66 96.9304 21.66 97.56C21.66 98.1896 22.1704 98.7 22.8 98.7Z" fill="#E0E0E0"/>
<path d="M102.33 104.232C107.049 104.232 110.874 100.407 110.874 95.688C110.874 90.9693 107.049 87.144 102.33 87.144C97.6113 87.144 93.786 90.9693 93.786 95.688C93.786 100.407 97.6113 104.232 102.33 104.232Z" fill="#FF5E00"/>
<path d="M105.665 93.5688L104.452 92.3554L99.0041 97.8029L100.218 99.0163L105.665 93.5688Z" fill="white"/>
<path d="M100.211 92.3589L98.9974 93.5723L104.445 99.0199L105.658 97.8065L100.211 92.3589Z" fill="white"/>
<path d="M53.766 103.176L60.444 110.064L69.786 107.88L71.682 117.282L80.718 120.498L77.232 129.438L83.094 137.028L75.33 142.656L76.158 152.214L66.582 152.754L62.112 161.244L53.766 156.516L45.414 161.244L40.944 152.754L31.368 152.214L32.196 142.656L24.432 137.028L30.3 129.438L26.808 120.498L35.844 117.282L37.74 107.88L47.082 110.064L53.766 103.176Z" fill="#FF5E00"/>
<g opacity="0.3">
<path opacity="0.3" d="M50.094 124.632C50.094 122.682 49.416 122.154 48.33 122.154C47.244 122.154 46.566 122.754 46.566 124.29V125.682H43.35V124.482C43.35 121.014 45.084 119.034 48.426 119.034C51.768 119.034 53.496 121.014 53.496 124.482V125.04C53.496 127.362 52.758 128.814 51.096 129.498C52.8 130.236 53.496 131.844 53.496 134.046V135.744C53.496 139.212 51.768 141.192 48.426 141.192C45.084 141.192 43.35 139.212 43.35 135.744V133.944H46.566V135.954C46.566 137.502 47.25 138.09 48.33 138.09C49.41 138.09 50.094 137.568 50.094 135.648V133.944C50.094 131.934 49.416 131.19 47.868 131.19H46.722V128.094H48.054C49.32 128.094 50.094 127.542 50.094 125.808V124.632Z" fill="black"/>
<path opacity="0.3" d="M55.512 124.506C55.512 121.038 57.312 119.058 60.678 119.058C64.044 119.058 65.844 121.038 65.844 124.506V135.768C65.844 139.236 64.044 141.216 60.678 141.216C57.312 141.216 55.512 139.236 55.512 135.768V124.506ZM58.914 135.984C58.914 137.532 59.598 138.12 60.678 138.12C61.758 138.12 62.442 137.52 62.442 135.984V124.29C62.442 122.742 61.764 122.154 60.678 122.154C59.592 122.154 58.914 122.754 58.914 124.29V135.984Z" fill="black"/>
</g>
<g opacity="0.3">
<path opacity="0.3" d="M66.75 119.136C66.7286 119.005 66.7358 118.872 66.7712 118.744C66.8066 118.617 66.8693 118.499 66.9549 118.398C67.0405 118.297 67.147 118.216 67.2671 118.161C67.3871 118.105 67.5177 118.077 67.65 118.077C67.7822 118.077 67.9129 118.105 68.0329 118.161C68.1529 118.216 68.2594 118.297 68.345 118.398C68.4307 118.499 68.4933 118.617 68.5287 118.744C68.5641 118.872 68.5714 119.005 68.55 119.136V121.104C68.5714 121.234 68.5641 121.368 68.5287 121.496C68.4933 121.623 68.4307 121.741 68.345 121.842C68.2594 121.943 68.1529 122.024 68.0329 122.079C67.9129 122.135 67.7822 122.163 67.65 122.163C67.5177 122.163 67.3871 122.135 67.2671 122.079C67.147 122.024 67.0405 121.943 66.9549 121.842C66.8693 121.741 66.8066 121.623 66.7712 121.496C66.7358 121.368 66.7286 121.234 66.75 121.104V119.136ZM67.35 121.152C67.35 121.416 67.458 121.524 67.656 121.524C67.854 121.524 67.968 121.416 67.968 121.152V119.088C67.968 118.824 67.848 118.71 67.656 118.71C67.464 118.71 67.35 118.824 67.35 119.088V121.152ZM70.026 118.218H70.584L68.184 124.218H67.626L70.026 118.218ZM69.726 121.332C69.7046 121.201 69.7118 121.068 69.7472 120.94C69.7826 120.813 69.8453 120.695 69.9309 120.594C70.0165 120.493 70.123 120.412 70.2431 120.357C70.3631 120.301 70.4937 120.273 70.626 120.273C70.7582 120.273 70.8889 120.301 71.0089 120.357C71.1289 120.412 71.2354 120.493 71.321 120.594C71.4067 120.695 71.4693 120.813 71.5047 120.94C71.5401 121.068 71.5474 121.201 71.526 121.332V123.3C71.5474 123.43 71.5401 123.564 71.5047 123.692C71.4693 123.819 71.4067 123.937 71.321 124.038C71.2354 124.139 71.1289 124.22 71.0089 124.275C70.8889 124.331 70.7582 124.359 70.626 124.359C70.4937 124.359 70.3631 124.331 70.2431 124.275C70.123 124.22 70.0165 124.139 69.9309 124.038C69.8453 123.937 69.7826 123.819 69.7472 123.692C69.7118 123.564 69.7046 123.43 69.726 123.3V121.332ZM70.326 123.348C70.326 123.612 70.434 123.72 70.632 123.72C70.83 123.72 70.944 123.612 70.944 123.348V121.284C70.944 121.02 70.824 120.912 70.632 120.912C70.44 120.912 70.326 121.02 70.326 121.284V123.348Z" fill="black"/>
</g>
<g opacity="0.3">
<path opacity="0.3" d="M47.61 142.302C48.96 142.302 49.656 143.112 49.656 144.528V144.81H48.342V144.438C48.342 143.838 48.09 143.568 47.646 143.568C47.202 143.568 46.95 143.808 46.95 144.438C46.95 146.238 49.668 146.604 49.668 149.13C49.668 150.546 48.96 151.356 47.598 151.356C46.236 151.356 45.522 150.546 45.522 149.13V148.59H46.836V149.19C46.836 149.82 47.118 150.048 47.556 150.048C47.994 150.048 48.282 149.82 48.282 149.19C48.282 147.39 45.558 147.03 45.558 144.498C45.558 143.112 46.254 142.302 47.61 142.302Z" fill="black"/>
<path opacity="0.3" d="M54.972 151.254H53.568L53.328 149.652H51.6L51.36 151.254H50.1L51.516 142.404H53.556L54.972 151.254ZM51.798 148.446H53.136L52.464 144L51.798 148.446Z" fill="black"/>
<path opacity="0.3" d="M55.614 142.404H57V150H59.292V151.266H55.614V142.404Z" fill="black"/>
<path opacity="0.3" d="M61.296 146.136H63.204V147.396H61.296V150H63.696V151.266H59.904V142.404H63.696V143.67H61.296V146.136Z" fill="black"/>
</g>
<path d="M48.828 125.256C48.828 123.306 48.144 122.778 47.064 122.778C45.984 122.778 45.3 123.378 45.3 124.914V126.306H42.078V125.106C42.078 121.644 43.812 119.664 47.154 119.664C50.496 119.664 52.23 121.644 52.23 125.106V125.664C52.23 127.986 51.486 129.438 49.83 130.122C51.534 130.866 52.23 132.474 52.23 134.67V136.374C52.23 139.836 50.496 141.816 47.154 141.816C43.812 141.816 42.078 139.836 42.078 136.374V134.574H45.3V136.584C45.3 138.132 45.978 138.72 47.064 138.72C48.15 138.72 48.828 138.192 48.828 136.272V134.574C48.828 132.558 48.144 131.82 46.596 131.82H45.456V128.724H46.8C48.072 128.724 48.846 128.166 48.846 126.432L48.828 125.256Z" fill="white"/>
<path d="M54.24 125.13C54.24 121.668 56.04 119.688 59.412 119.688C62.784 119.688 64.578 121.668 64.578 125.13V136.398C64.578 139.86 62.778 141.84 59.412 141.84C56.046 141.84 54.24 139.86 54.24 136.398V125.13ZM57.648 136.614C57.648 138.162 58.326 138.75 59.412 138.75C60.498 138.75 61.176 138.15 61.176 136.614V124.914C61.176 123.366 60.492 122.778 59.412 122.778C58.332 122.778 57.648 123.378 57.648 124.914V136.614Z" fill="white"/>
<path d="M65.478 119.136C65.4566 119.005 65.4639 118.872 65.4993 118.744C65.5347 118.617 65.5973 118.499 65.6829 118.398C65.7686 118.297 65.8751 118.216 65.9951 118.161C66.1151 118.105 66.2458 118.077 66.378 118.077C66.5102 118.077 66.6409 118.105 66.7609 118.161C66.8809 118.216 66.9875 118.297 67.0731 118.398C67.1587 118.499 67.2214 118.617 67.2567 118.744C67.2921 118.872 67.2994 119.005 67.278 119.136V121.104C67.2994 121.234 67.2921 121.368 67.2567 121.496C67.2214 121.623 67.1587 121.741 67.0731 121.842C66.9875 121.943 66.8809 122.024 66.7609 122.079C66.6409 122.135 66.5102 122.163 66.378 122.163C66.2458 122.163 66.1151 122.135 65.9951 122.079C65.8751 122.024 65.7686 121.943 65.6829 121.842C65.5973 121.741 65.5347 121.623 65.4993 121.496C65.4639 121.368 65.4566 121.234 65.478 121.104V119.136ZM66.078 121.152C66.078 121.416 66.186 121.524 66.384 121.524C66.582 121.524 66.696 121.416 66.696 121.152V119.088C66.696 118.824 66.576 118.71 66.384 118.71C66.192 118.71 66.078 118.824 66.078 119.088V121.152ZM68.754 118.218H69.312L66.912 124.218H66.354L68.754 118.218ZM68.454 121.332C68.4326 121.201 68.4399 121.068 68.4753 120.94C68.5107 120.813 68.5733 120.695 68.6589 120.594C68.7446 120.493 68.8511 120.412 68.9711 120.357C69.0911 120.301 69.2218 120.273 69.354 120.273C69.4862 120.273 69.6169 120.301 69.7369 120.357C69.8569 120.412 69.9635 120.493 70.0491 120.594C70.1347 120.695 70.1974 120.813 70.2327 120.94C70.2681 121.068 70.2754 121.201 70.254 121.332V123.3C70.2754 123.43 70.2681 123.564 70.2327 123.692C70.1974 123.819 70.1347 123.937 70.0491 124.038C69.9635 124.139 69.8569 124.22 69.7369 124.275C69.6169 124.331 69.4862 124.359 69.354 124.359C69.2218 124.359 69.0911 124.331 68.9711 124.275C68.8511 124.22 68.7446 124.139 68.6589 124.038C68.5733 123.937 68.5107 123.819 68.4753 123.692C68.4399 123.564 68.4326 123.43 68.454 123.3V121.332ZM69.054 123.348C69.054 123.612 69.162 123.72 69.36 123.72C69.558 123.72 69.672 123.612 69.672 123.348V121.284C69.672 121.02 69.552 120.912 69.36 120.912C69.168 120.912 69.054 121.02 69.054 121.284V123.348Z" fill="white"/>
<path d="M46.338 142.302C47.688 142.302 48.384 143.112 48.384 144.528V144.81H47.07V144.438C47.07 143.838 46.818 143.568 46.374 143.568C45.93 143.568 45.678 143.808 45.678 144.438C45.678 146.238 48.396 146.604 48.396 149.13C48.396 150.546 47.688 151.356 46.326 151.356C44.964 151.356 44.25 150.546 44.25 149.13V148.59H45.564V149.19C45.564 149.82 45.846 150.048 46.29 150.048C46.734 150.048 47.01 149.82 47.01 149.19C47.01 147.39 44.292 147.03 44.292 144.498C44.292 143.112 45 142.302 46.338 142.302Z" fill="white"/>
<path d="M53.7 151.254H52.296L52.056 149.652H50.346L50.106 151.254H48.828L50.244 142.404H52.284L53.7 151.254ZM50.526 148.446H51.864L51.192 144L50.526 148.446Z" fill="white"/>
<path d="M54.342 142.404H55.734V150H58.026V151.266H54.342V142.404Z" fill="white"/>
<path d="M60 146.136H61.908V147.396H60V150H62.4V151.266H58.632V142.404H62.4V143.67H60V146.136Z" fill="white"/>
<path d="M71.73 108.336L72.12 107.448C72.5372 107.717 73.0218 107.862 73.518 107.868C74.016 107.868 74.208 107.73 74.208 107.526C74.208 106.854 71.808 107.34 71.808 105.768C71.808 105.018 72.408 104.4 73.68 104.4C74.2146 104.391 74.743 104.517 75.216 104.766L74.85 105.654C74.4832 105.448 74.0707 105.336 73.65 105.33C73.152 105.33 72.966 105.498 72.966 105.708C72.966 106.356 75.366 105.876 75.366 107.43C75.366 108.168 74.766 108.798 73.494 108.798C72.8745 108.811 72.2637 108.651 71.73 108.336Z" fill="#E0E0E0"/>
<path d="M77.4 107.568L77.058 107.91V108.714H75.912V104.232H77.058V106.578L78.258 105.438H79.614L78.258 106.842L79.728 108.714H78.342L77.4 107.568Z" fill="#E0E0E0"/>
<path d="M79.89 104.466C79.8944 104.38 79.9164 104.295 79.9546 104.218C79.9927 104.14 80.0463 104.071 80.112 104.015C80.1777 103.959 80.2541 103.917 80.3366 103.891C80.4192 103.865 80.5061 103.857 80.592 103.866C80.6785 103.852 80.7669 103.857 80.8512 103.881C80.9355 103.905 81.0135 103.947 81.0798 104.004C81.1462 104.061 81.1992 104.132 81.2351 104.212C81.2711 104.292 81.2892 104.378 81.288 104.466C81.2719 104.64 81.1912 104.802 81.0619 104.92C80.9326 105.038 80.764 105.103 80.589 105.103C80.4141 105.103 80.2454 105.038 80.1161 104.92C79.9868 104.802 79.9062 104.64 79.89 104.466ZM80.016 105.438H81.162V108.714H80.016V105.438Z" fill="#E0E0E0"/>
<path d="M85.572 107.076C85.587 107.294 85.5565 107.514 85.4824 107.72C85.4084 107.926 85.2925 108.114 85.1419 108.273C84.9914 108.432 84.8095 108.558 84.6078 108.643C84.4061 108.729 84.1889 108.771 83.97 108.768C83.8018 108.776 83.6337 108.75 83.4759 108.691C83.3181 108.633 83.1738 108.542 83.052 108.426V109.884H81.906V105.438H82.998V105.762C83.1211 105.63 83.2725 105.527 83.4408 105.462C83.6091 105.396 83.79 105.37 83.97 105.384C84.1889 105.381 84.4061 105.423 84.6078 105.509C84.8095 105.594 84.9914 105.72 85.1419 105.879C85.2925 106.038 85.4084 106.226 85.4824 106.432C85.5565 106.638 85.587 106.858 85.572 107.076ZM84.414 107.076C84.3978 106.943 84.3435 106.817 84.2576 106.714C84.1717 106.611 84.0579 106.535 83.9299 106.495C83.8018 106.456 83.665 106.454 83.5358 106.49C83.4066 106.526 83.2907 106.598 83.2018 106.699C83.1129 106.799 83.055 106.923 83.0349 107.056C83.0149 107.188 83.0335 107.324 83.0887 107.446C83.1439 107.569 83.2332 107.672 83.3459 107.745C83.4586 107.818 83.5899 107.856 83.724 107.856C83.8224 107.856 83.9197 107.835 84.0094 107.794C84.0991 107.754 84.1792 107.695 84.2444 107.621C84.3096 107.547 84.3584 107.461 84.3877 107.367C84.4169 107.273 84.4259 107.174 84.414 107.076Z" fill="#E0E0E0"/>
<path d="M90.756 107.892H88.956L88.62 108.714H87.42L89.286 104.484H90.486L92.364 108.714H91.116L90.756 107.892ZM90.402 107.01L89.862 105.654L89.316 107.01H90.402Z" fill="#E0E0E0"/>
<path d="M96.066 104.232V108.714H94.974V108.39C94.8522 108.52 94.7028 108.622 94.5367 108.687C94.3706 108.753 94.1921 108.78 94.014 108.768C93.5653 108.768 93.1349 108.59 92.8176 108.272C92.5003 107.955 92.322 107.525 92.322 107.076C92.322 106.627 92.5003 106.197 92.8176 105.88C93.1349 105.562 93.5653 105.384 94.014 105.384C94.1801 105.374 94.3464 105.399 94.5023 105.457C94.6583 105.515 94.8005 105.604 94.92 105.72V104.232H96.066ZM94.938 107.07C94.9207 106.937 94.8653 106.812 94.7786 106.71C94.6918 106.607 94.5774 106.532 94.449 106.494C94.3207 106.455 94.1839 106.454 94.055 106.491C93.9262 106.528 93.8109 106.602 93.7228 106.703C93.6348 106.804 93.5779 106.929 93.5589 107.061C93.5399 107.194 93.5596 107.329 93.6157 107.451C93.6718 107.573 93.7619 107.676 93.8752 107.748C93.9884 107.82 94.1199 107.857 94.254 107.856C94.3525 107.855 94.4497 107.833 94.5391 107.792C94.6286 107.751 94.7083 107.691 94.7729 107.617C94.8376 107.543 94.8857 107.455 94.9142 107.361C94.9426 107.267 94.9508 107.168 94.938 107.07Z" fill="#E0E0E0"/>
<path d="M96.546 108.432L96.888 107.646C97.2356 107.843 97.6284 107.947 98.028 107.946C98.418 107.946 98.544 107.862 98.544 107.724C98.544 107.28 96.612 107.784 96.612 106.47C96.612 105.87 97.176 105.384 98.208 105.384C98.6536 105.375 99.0952 105.469 99.498 105.66L99.156 106.44C98.8674 106.282 98.5433 106.199 98.214 106.2C97.824 106.2 97.686 106.308 97.686 106.428C97.686 106.884 99.612 106.392 99.612 107.694C99.612 108.294 99.06 108.768 97.992 108.768C97.4895 108.779 96.9923 108.663 96.546 108.432Z" fill="#E0E0E0"/>
</svg>
