<svg width="18" height="21" viewBox="0 0 18 21" fill="none" xmlns="http://www.w3.org/2000/svg">
<path d="M11.2511 1.0115H4.59811C3.59813 1.00756 2.63648 1.39588 1.91963 2.09309C1.20279 2.7903 0.78792 3.7408 0.764106 4.7405V15.4535C0.752904 15.9637 0.843849 16.471 1.03159 16.9455C1.21933 17.42 1.50008 17.8522 1.85732 18.2166C2.21455 18.581 2.64106 18.8703 3.11175 19.0674C3.58244 19.2645 4.0878 19.3656 4.59811 19.3645H12.5871C13.5945 19.3235 14.5466 18.8927 15.2424 18.163C15.9382 17.4333 16.3232 16.4617 16.3161 15.4535V6.2875L11.2511 1.0115Z" stroke="#97AABD" stroke-width="1.5" stroke-miterlimit="10" stroke-linecap="round" stroke-linejoin="round"/>
<path d="M10.988 0.999512V3.90851C10.9878 4.59031 11.258 5.24437 11.7395 5.72713C12.2209 6.2099 12.8742 6.48192 13.556 6.48351C14.873 6.48351 16.22 6.48351 16.311 6.48351" stroke="#97AABD" stroke-width="1.5" stroke-miterlimit="10" stroke-linecap="round" stroke-linejoin="round"/>
<path d="M10.8011 13.8076H5.40112" stroke="#97AABD" stroke-width="1.5" stroke-miterlimit="10" stroke-linecap="round" stroke-linejoin="round"/>
<path d="M8.75615 8.85547H5.40015" stroke="#97AABD" stroke-width="1.5" stroke-miterlimit="10" stroke-linecap="round" stroke-linejoin="round"/>
</svg>
