<svg width="17" height="21" viewBox="0 0 17 21" fill="none" xmlns="http://www.w3.org/2000/svg">
<path d="M0.455322 16.5795C0.455322 13.8575 4.14032 13.1795 8.45532 13.1795C12.7943 13.1795 16.4553 13.8795 16.4553 16.6045C16.4553 19.3295 12.7703 20.0045 8.45532 20.0045C4.11732 20.0045 0.455322 19.3045 0.455322 16.5795ZM3.16132 5.29551C3.16093 4.24837 3.47108 3.22464 4.05255 2.35378C4.63402 1.48292 5.46069 0.804067 6.42801 0.40307C7.39533 0.00207308 8.45984 -0.103051 9.4869 0.100993C10.514 0.305037 11.4575 0.809084 12.198 1.54938C12.9386 2.28968 13.443 3.23298 13.6475 4.25997C13.8519 5.28696 13.7472 6.35151 13.3465 7.31898C12.9459 8.28645 12.2674 9.11337 11.3967 9.69518C10.5261 10.277 9.50246 10.5875 8.45532 10.5875C7.75953 10.5902 7.0701 10.4551 6.42674 10.1901C5.78338 9.92512 5.19881 9.53545 4.70672 9.04354C4.21462 8.55163 3.82473 7.96721 3.5595 7.32395C3.29427 6.68069 3.15894 5.9913 3.16132 5.29551Z" fill="#97AABD"/>
</svg>
