<svg width="22" height="20" viewBox="0 0 22 20" fill="none" xmlns="http://www.w3.org/2000/svg">
<path d="M20.4543 12.3955H16.4063C15.6925 12.3955 15.0079 12.1119 14.5032 11.6071C13.9984 11.1024 13.7148 10.4178 13.7148 9.70395C13.7148 8.99012 13.9984 8.30553 14.5032 7.80077C15.0079 7.29602 15.6925 7.01245 16.4063 7.01245H20.4543" stroke="#97AABD" stroke-width="1.5" stroke-miterlimit="10" stroke-linecap="round" stroke-linejoin="round"/>
<path d="M16.8653 9.64258H16.5533" stroke="#97AABD" stroke-width="1.5" stroke-miterlimit="10" stroke-linecap="round" stroke-linejoin="round"/>
<path d="M6.56428 0.999512H15.2073C16.5991 0.999512 17.934 1.55242 18.9182 2.53662C19.9024 3.52081 20.4553 4.85566 20.4553 6.24751V13.4245C20.4553 14.1137 20.3195 14.7961 20.0558 15.4328C19.7921 16.0696 19.4055 16.6481 18.9182 17.1354C18.4309 17.6227 17.8523 18.0093 17.2156 18.273C16.5789 18.5368 15.8965 18.6725 15.2073 18.6725H6.56428C5.17243 18.6725 3.83758 18.1196 2.85339 17.1354C1.8692 16.1512 1.31628 14.8164 1.31628 13.4245L1.31628 6.24751C1.31628 4.85566 1.8692 3.52081 2.85339 2.53662C3.83758 1.55242 5.17243 0.999512 6.56428 0.999512V0.999512Z" stroke="#97AABD" stroke-width="1.5" stroke-miterlimit="10" stroke-linecap="round" stroke-linejoin="round"/>
<path d="M5.85229 5.5376H11.2523" stroke="#97AABD" stroke-width="1.5" stroke-miterlimit="10" stroke-linecap="round" stroke-linejoin="round"/>
</svg>
